PathFileType	4	(X/Y/Z)	D:\Share\Shared_Data\Ergonomics\Sit To Stand Pertubation\S1\Perturbed_NoHarness.trc
DataRate	CameraRate	NumFrames	NumMarkers	Units	OrigDataRate	OrigDataStartFrame	OrigNumFrames	
100	100	6	18	m	100	8461	221
Frame#	Time	L_ASIS			R_ASIS			R_Pelvis			V_Sacral			L_Pelvis			Clavical			R_Acromium			L_Acromium			Sternum			Torso			R_Thigh_Med			R_Thigh_Lat			R_Thigh			R_Shank_Med			R_Shank_Lat			R_Shank			R_Heel			R_Toe			
		X1	Y1	Z1	X2	Y2	Z2	X3	Y3	Z3	X4	Y4	Z4	X5	Y5	Z5	X6	Y6	Z6	X7	Y7	Z7	X8	Y8	Z8	X9	Y9	Z9	X10	Y10	Z10	X11	Y11	Z11	X12	Y12	Z12	X13	Y13	Z13	X14	Y14	Z14	X15	Y15	Z15	X16	Y16	Z16	X17	Y17	Z17	X18	Y18	Z18	

8461	84.6	0.027080973	0.64976404	-0.095594925	-0.071479446	0.6297912	0.13109233	0.011887137	0.63308289	0.1035392	-0.16986374	0.57539886	0.005382267	-0.065431709	0.63211005	-0.14015477	0.018513674	0.97045587	-0.00061856836	-0.04573801	1.0384821	0.14780803	-0.087033386	0.99538574	-0.19825613	0.0035201149	0.98275562	0.10130144	0.014585731	0.97372424	-0.060800278	0.30545792	0.4147153	0.040673981	0.30005133	0.43675873	0.16048758	0.17014226	0.55094763	0.10760927	0.33943005	0.096349274	0.102432	0.31202054	0.098679939	0.17967657	0.30265253	0.31197552	0.1842563	0.27165903	0.042852924	0.13266531	0.47550882	0.05392915	0.14009142
8462	84.61	0.027060637	0.64974628	-0.09560228	-0.071492157	0.62979315	0.13107979	0.011887036	0.63297003	0.10341531	-0.16989639	0.57536603	0.0053762875	-0.065483604	0.63210529	-0.14015474	0.018795055	0.97032983	-0.00065820897	-0.045314308	1.0384624	0.14777376	-0.086713036	0.99538971	-0.19827667	0.003858031	0.9826731	0.1012524	0.014886819	0.97357104	-0.060823757	0.30545529	0.4147132	0.040673153	0.30004764	0.43675681	0.16048915	0.17015108	0.55094696	0.10761244	0.33943518	0.096346588	0.10242413	0.31202158	0.098676247	0.1796698	0.3026434	0.31196878	0.18425537	0.27166074	0.042855816	0.13266055	0.47551193	0.05392651	0.1400887
8463	84.62	0.027029366	0.6497265	-0.095621536	-0.07151223	0.62979303	0.13106628	0.01187681	0.63288654	0.10333655	-0.16993773	0.57532404	0.0053690715	-0.065548828	0.63209589	-0.14015768	0.0191119	0.97018176	-0.00070306218	-0.044832336	1.0384368	0.14773759	-0.086354576	0.99539587	-0.19829353	0.004240941	0.98257446	0.10119746	0.015226568	0.97339618	-0.060849613	0.30545062	0.41471329	0.040671234	0.30004205	0.4367561	0.16049055	0.17016014	0.55094946	0.10761715	0.33944028	0.096344933	0.10241476	0.31202252	0.098673355	0.1796615	0.30263214	0.31196213	0.1842542	0.27166241	0.042859108	0.13265442	0.4755152	0.053923763	0.14008481
8464	84.63	0.02698547	0.64970496	-0.095653694	-0.071541237	0.62979028	0.13105225	0.011855093	0.63284021	0.1033131	-0.1699886	0.57527234	0.0053606601	-0.065628296	0.63208112	-0.14016417	0.019470951	0.9700083	-0.00075297493	-0.044283272	1.038405	0.14769919	-0.085948997	0.99540399	-0.19830717	0.0046755896	0.9824574	0.10113678	0.015612429	0.97319666	-0.060878014	0.30544342	0.41471591	0.040667919	0.30003436	0.43675668	0.16049168	0.17016887	0.55095605	0.10762385	0.33944501	0.096344414	0.10240355	0.31202347	0.098671448	0.17965135	0.30261868	0.31195563	0.18425269	0.271664	0.042862865	0.13264665	0.47551865	0.053920887	0.14007953
8465	84.64	0.026927376	0.6496817	-0.095699532	-0.07158075	0.62978461	0.13103821	0.011820864	0.63283893	0.10335435	-0.17004979	0.57521014	0.0053511891	-0.065722694	0.6320603	-0.1401745	0.019879683	0.96980597	-0.00080755579	-0.043657364	1.0383669	0.1476584	-0.08548629	0.99541351	-0.19831805	0.0051693935	0.98231976	0.10107072	0.016052624	0.97296967	-0.060909077	0.30543323	0.41472128	0.040663029	0.30002414	0.43675873	0.16049257	0.17017639	0.5509679	0.10763309	0.33944891	0.096345085	0.10239015	0.31202429	0.098670685	0.17963901	0.30260275	0.31194931	0.18425082	0.27166534	0.042867157	0.13263699	0.47552234	0.053917889	0.14007269
8466	84.65	0.026853712	0.64965692	-0.095759567	-0.071632317	0.62977515	0.13102475	0.011773623	0.63288867	0.10346756	-0.17012186	0.57513721	0.0053408885	-0.065832512	0.63203302	-0.14018896	0.020346249	0.96957135	-0.00086617565	-0.042944126	1.038322	0.14761504	-0.084955566	0.99542444	-0.19832677	0.0057303767	0.98215918	0.10099979	0.016556025	0.9727124	-0.060942921	0.30541946	0.41472964	0.040656574	0.30001102	0.43676239	0.16049335	0.17018158	0.55098596	0.10764555	0.33945157	0.096346977	0.10237417	0.31202512	0.09867115	0.17962415	0.30258405	0.31194302	0.18424873	0.27166638	0.042872036	0.13262529	0.47552631	0.053914776	0.14006403
